# xmcd CD database file
#
# Track frame offsets:
#	150
#	15206
#	23199
#	31990
#	39133
#	54905
#	64345
#	71236
#	76649
#	86872
#	98049
#
# Disc length: 1693 seconds
#
# Revision: 1
# Processed by: cddbd v1.5.2PL0 Copyright (c) Steve Scherf et al.
# Submitted via: CDex 1.51
#
DISCID=7a069b0b
DTITLE=Curious George - Playtime Songs Of
DYEAR=2006
DGENRE=Childrens
TTITLE0=Head Shoulders Knees and Toes
TTITLE1=Trouble's My Name
TTITLE2=Apples and Bananas
TTITLE3=Say, Say, Oh Playmate
TTITLE4=Curious =Mischievous
TTITLE5=A Bycycle Built For Two
TTITLE6=One Two Buckle My Shoe
TTITLE7=Unpredictable
TTITLE8=Here We Go Luby Loo
TTITLE9=B-I-N-G-O
TTITLE10=Curious George (reading from the book)
EXTD=
EXTT0=
EXTT1=
EXTT2=
EXTT3=
EXTT4=
EXTT5=
EXTT6=
EXTT7=
EXTT8=
EXTT9=
EXTT10=
PLAYORDER=
